<svg width="375" height="812" viewBox="0 0 375 812" fill="none" xmlns="http://www.w3.org/2000/svg">
<g clip-path="url(#clip0_4002_13888)">
<rect width="375" height="812" rx="40" fill="#E5EAD7"/>
<path d="M-17.7751 133.567C-23.7055 131.128 -27.2316 123.922 -25.6021 117.664C-23.9459 111.406 -17.3209 106.963 -10.9899 107.857C-7.73081 108.318 -4.79233 109.97 -1.93399 111.596C1.69904 113.654 5.33208 115.741 8.96511 117.799C-0.0907593 114.576 -4.47177 103.251 -2.49497 93.7153C-1.05244 86.8612 3.56899 80.3052 10.2474 78.5171C15.6969 77.0542 21.4937 78.8964 26.4891 81.5243C42.0097 89.5975 52.882 104.471 62.1249 119.479C59.2398 115.442 62.4455 109.239 67.1203 107.613C71.7952 106.015 76.9241 107.694 81.3319 109.916C91.1624 114.901 99.3367 124.437 105 134L-17.7751 133.567Z" fill="#F2F5EB"/>
<path d="M382.452 158.45C390.057 155.359 394.58 146.223 392.49 138.288C390.366 130.354 381.87 124.721 373.75 125.854C369.571 126.438 365.802 128.533 362.137 130.594C357.478 133.205 352.818 135.85 348.159 138.46C359.773 134.373 365.391 120.015 362.856 107.925C361.006 99.2348 355.079 90.9226 346.515 88.6557C339.526 86.8009 332.092 89.1365 325.686 92.4683C305.781 102.704 291.838 121.561 279.985 140.59C283.685 135.472 279.574 127.606 273.579 125.545C267.583 123.519 261.006 125.648 255.353 128.465C242.746 134.785 232.263 146.875 225 159L382.452 158.45Z" fill="#F2F5EB"/>
<path d="M-34.0657 375.211C-41.2164 372.326 -45.5027 363.713 -43.5119 356.258C-41.5211 348.802 -33.4969 343.5 -25.8587 344.557C-21.9381 345.105 -18.3627 347.076 -14.9093 349.026C-10.5214 351.484 -6.13351 353.942 -1.74561 356.4C-12.6747 352.54 -17.9768 339.072 -15.5797 327.716C-13.853 319.55 -8.2462 311.749 -0.181404 309.616C6.40044 307.869 13.3886 310.083 19.4626 313.191C38.2127 322.82 51.3561 340.514 62.5086 358.391C59.0146 353.576 62.8946 346.182 68.542 344.272C74.1691 342.363 80.3853 344.353 85.7076 347.015C97.5712 352.967 107.464 364.302 114.29 375.698L-34.0657 375.211Z" fill="#F2F5EB"/>
<path d="M462.436 322.232C473.639 317.691 480.354 304.132 477.235 292.395C474.116 280.659 461.544 272.312 449.577 273.975C443.435 274.838 437.833 277.94 432.422 281.01C425.548 284.88 418.673 288.75 411.798 292.619C428.921 286.543 437.228 265.34 433.473 247.464C430.767 234.608 421.983 222.327 409.347 218.97C399.035 216.219 388.087 219.705 378.57 224.598C349.194 239.756 328.601 267.611 311.128 295.753C316.602 288.174 310.523 276.533 301.675 273.527C292.859 270.521 283.12 273.655 274.781 277.844C256.194 287.215 240.694 305.059 230 323L462.436 322.232Z" fill="#F2F5EB"/>
<path d="M217.008 138.957C219.436 147.582 229.3 151.669 237.11 147.281C247.124 141.64 259.216 149.964 257.588 161.346C256.312 170.222 263.647 177.969 272.559 177.116C284 176.038 291.66 188.574 285.552 198.302C280.77 205.898 284.35 215.952 292.837 218.81C303.702 222.496 305.654 237.062 296.091 243.456C288.656 248.445 287.83 259.075 294.414 265.168C302.85 272.965 298.695 287.055 287.379 289.011C278.567 290.54 273.485 299.917 277.015 308.165C281.571 318.721 272.033 329.903 260.918 327.095C252.231 324.888 243.795 331.407 243.669 340.357C243.544 351.865 230.301 358.208 221.264 351.088C214.229 345.547 203.865 348.054 200.135 356.203C195.353 366.657 180.658 367.059 175.301 356.88C171.12 348.957 160.631 347.001 153.921 352.943C145.31 360.54 131.741 354.924 130.965 343.441C130.364 334.491 121.577 328.448 113.04 331.131C102.075 334.566 91.9616 323.885 95.942 313.105C99.0463 304.681 93.4636 295.58 84.5514 294.552C73.1608 293.223 68.2291 279.358 76.24 271.11C82.4736 264.691 81.0717 254.086 73.3861 249.523C63.5226 243.656 64.6492 228.989 75.3138 224.727C83.6252 221.393 86.6543 211.163 81.4722 203.843C74.8381 194.466 81.8227 181.529 93.2884 181.98C102.226 182.331 109.16 174.208 107.383 165.408C105.13 154.126 116.771 145.175 127.06 150.239C135.096 154.201 144.709 149.588 146.687 140.838C149.215 129.631 163.485 126.171 170.82 134.996C176.552 141.891 187.217 141.59 192.549 134.394C199.434 125.218 213.879 127.901 217.008 138.957Z" fill="#4F3422"/>
<path d="M358.203 409.532C348.815 376.638 319.9 353.171 285.828 350.764C207.847 345.223 74.6892 343.218 46.4255 373.454C37.1878 383.332 56.0387 365.381 46.4255 373.454C3.19126 409.732 -3.54297 497.734 -3.54297 497.734L97.4454 497.032L378.706 497.834C380.258 489.811 368.617 446.086 358.203 409.532Z" fill="#9BB168"/>
<path d="M226.674 314.234L219.714 292.071C225.547 293.45 231.956 291.996 236.687 287.608C244.273 280.588 244.748 268.754 237.739 261.158C230.729 253.561 218.913 253.085 211.328 260.105C210.877 260.531 210.451 260.957 210.051 261.408L201.84 235.284C200.813 232.05 197.609 230.044 194.254 230.545C177.631 233.027 131.218 244.686 127.838 297.336C127.588 301.322 130.717 304.732 134.723 304.732L155.201 304.707L153.574 318.948C178.257 323.686 202.841 321.104 226.674 314.234Z" fill="#CFD9B5"/>
<path d="M226.672 314.234C202.864 321.129 178.256 323.686 153.597 318.948L148.74 361.494C146.287 382.931 158.754 403.64 179.157 410.585C180.108 410.91 181.084 411.211 182.061 411.512C217.409 421.792 249.779 387.769 238.713 352.594L226.672 314.234Z" fill="#9BB168"/>
<path d="M163.26 246.793C153.146 252.033 143.007 257.248 132.894 262.488C131.567 263.165 131.442 265.096 132.418 266.099C135.422 269.157 138.401 272.191 141.405 275.25C143.483 277.356 146.713 274.122 144.635 272.015C141.631 268.957 138.651 265.923 135.647 262.864C135.497 264.068 135.347 265.271 135.172 266.475C145.286 261.235 155.424 256.02 165.538 250.78C168.192 249.401 165.864 245.44 163.26 246.793Z" fill="#4F3422"/>
<path d="M160.382 282.294C160.657 284.65 157.904 286.807 155.751 285.478C153.222 283.948 150.919 287.91 153.447 289.439C158.329 292.423 165.639 288.16 164.988 282.294C164.838 281.065 164.037 280.012 162.685 280.012C161.559 279.987 160.257 281.04 160.382 282.294Z" fill="#4F3422"/>
<path d="M227.524 269.43C223.593 270.759 219.663 272.088 215.733 273.416C212.954 274.369 214.155 278.782 216.959 277.829C220.89 276.5 224.82 275.171 228.75 273.843C231.529 272.915 230.328 268.477 227.524 269.43Z" fill="#4F3422"/>
<path d="M172.2 260.504C176.581 270.407 190.25 272.94 198.286 266.07C200.539 264.139 197.285 260.905 195.057 262.836C189.049 267.975 179.285 265.217 176.181 258.197C174.979 255.49 171.024 257.821 172.2 260.504Z" fill="#4F3422"/>
<path d="M175.954 262.335C174.276 264.04 172.574 265.72 170.897 267.425C168.819 269.506 172.048 272.765 174.126 270.659C175.803 268.954 177.506 267.274 179.183 265.569C181.286 263.488 178.057 260.254 175.954 262.335Z" fill="#4F3422"/>
<path d="M183.188 268.956C183.213 270.66 183.238 272.34 183.263 274.045C183.288 277.004 187.894 277.004 187.844 274.045C187.819 272.34 187.794 270.66 187.769 268.956C187.719 266.022 183.138 265.997 183.188 268.956Z" fill="#4F3422"/>
<path d="M192.2 268.906C192.751 270.411 193.277 271.94 193.827 273.444C194.253 274.597 195.38 275.4 196.656 275.049C197.783 274.748 198.684 273.394 198.259 272.216C197.708 270.711 197.182 269.182 196.631 267.678C196.206 266.499 195.079 265.722 193.802 266.073C192.676 266.399 191.8 267.753 192.2 268.906Z" fill="#4F3422"/>
<path d="M207.973 437.336C207.973 441.724 204.418 445.309 200.012 445.309C195.631 445.309 192.051 441.749 192.051 437.336C192.051 432.949 195.606 429.363 200.012 429.363C204.418 429.363 207.973 432.923 207.973 437.336Z" fill="#4F3422"/>
<path d="M92.7646 412.167C67.2546 425.279 41.7447 438.392 16.2097 451.504C10.3517 454.513 4.49365 457.521 -1.36438 460.53C-10.9775 465.494 -18.7882 472.038 -23.019 482.317C-26.7742 491.418 -27.2248 503.979 -22.969 513.055C-18.5629 522.457 -11.278 531.081 -1.2392 534.742C8.29886 538.202 20.065 539.505 29.4528 534.692C45.4498 526.468 61.4717 518.245 77.4686 509.996C100.475 498.162 123.482 486.354 146.488 474.52C133.32 451.354 120.252 428.112 107.91 404.395C102.853 407.002 97.7965 409.584 92.7646 412.167Z" fill="#9BB168"/>
<path d="M171.574 461.631C181.187 456.692 188.998 450.148 193.229 439.869C196.984 430.768 197.434 418.207 193.179 409.131C188.773 399.729 181.488 391.105 171.449 387.444C161.911 383.984 170.247 370.22 160.859 375.059C149.894 380.7 118.852 398.777 107.887 404.393C120.229 428.135 133.272 451.377 146.465 474.518C148.968 473.239 151.496 471.935 154 470.657C159.858 467.648 165.716 464.64 171.574 461.631Z" fill="#CFD9B5"/>
<path d="M175.878 405.568C178.907 385.235 181.936 364.877 184.966 344.544C185.842 338.627 181.586 332.109 175.427 331.432C169.294 330.755 163.286 334.641 162.335 340.984C159.305 361.317 156.276 381.675 153.247 402.008C152.371 407.925 156.627 414.444 162.785 415.121C168.919 415.823 174.927 411.911 175.878 405.568Z" fill="#CFD9B5"/>
<path d="M176.981 405.869C179.26 390.501 181.563 375.107 183.841 359.738C185.193 350.612 190.049 336.221 178.759 331.181C174.778 329.401 169.872 330.128 166.342 332.585C161.961 335.619 161.285 340.182 160.559 345.146C158.281 360.54 155.978 375.909 153.7 391.303C153.474 392.757 155.702 393.359 155.903 391.905C157.755 379.494 159.583 367.084 161.435 354.673C161.886 351.69 162.311 348.706 162.762 345.748C163.163 343.065 163.263 340.132 164.64 337.7C167.468 332.736 174.578 330.855 179.335 334.115C185.017 338.026 183.866 344.269 182.99 350.16C182.113 356.102 181.212 362.069 180.336 368.011C178.484 380.422 176.656 392.807 174.803 405.218C174.553 406.722 176.756 407.324 176.981 405.869Z" fill="#4F3422"/>
<path d="M181.36 444.153C186.542 410.983 191.725 377.789 196.907 344.619C197.833 338.702 193.627 332.158 187.444 331.431C181.31 330.704 175.277 334.565 174.276 340.908C169.094 374.078 163.911 407.273 158.729 440.443C157.803 446.359 162.009 452.903 168.192 453.63C174.326 454.357 180.359 450.496 181.36 444.153Z" fill="#CFD9B5"/>
<path d="M188.272 411.386C190.175 398.549 192.103 385.713 194.005 372.901C194.956 366.483 195.908 360.065 196.859 353.646C197.535 349.033 199.162 343.843 197.785 339.205C195.632 331.934 187.997 328.324 181.037 331.107C177.533 332.511 174.754 335.419 173.677 339.055C171.95 344.896 171.7 351.565 170.798 357.608C168.62 372.174 166.467 386.716 164.289 401.282C164.064 402.736 166.292 403.338 166.492 401.884C168.545 388.07 170.598 374.255 172.651 360.441C173.602 354.047 174.228 347.529 175.505 341.186C176.731 335.093 182.965 330.756 189.174 332.862C196.609 335.394 196.108 343.066 195.157 349.309C194.155 355.978 193.179 362.647 192.178 369.291C190.125 383.105 188.072 396.92 186.019 410.759C185.844 412.213 188.047 412.84 188.272 411.386Z" fill="#4F3422"/>
<path d="M182.639 352.918C178.959 377.638 175.279 402.359 171.599 427.079C170.722 432.996 174.978 439.515 181.137 440.192C187.27 440.869 193.278 436.983 194.23 430.639C197.91 405.919 201.59 381.198 205.27 356.478C206.146 350.561 201.89 344.042 195.732 343.365C189.598 342.688 183.59 346.574 182.639 352.918Z" fill="#CFD9B5"/>
<path d="M193.403 443.953C197.484 416.6 201.539 389.247 205.62 361.894C206.396 356.754 207.322 351.941 204.143 347.378C201.239 343.216 196.357 341.386 191.401 342.464C179.835 344.971 180.561 359.136 179.184 368.413C177.131 382.277 175.053 396.142 173 410.032C172.775 411.486 175.003 412.087 175.203 410.633C176.73 400.304 178.283 389.974 179.81 379.645C180.636 374.004 181.487 368.363 182.313 362.747C182.989 358.184 182.864 351.84 185.993 348.205C190.7 342.765 199.437 343.391 202.916 349.81C205.645 354.874 203.292 361.869 202.491 367.234C200.663 379.519 198.836 391.83 197.008 404.115C195.056 417.177 193.128 430.264 191.175 443.327C190.975 444.781 193.178 445.408 193.403 443.953Z" fill="#4F3422"/>
<path d="M293.239 413.344C318.749 426.457 344.259 439.569 369.794 452.681C375.652 455.69 381.51 458.699 387.368 461.707C396.981 466.646 404.792 473.19 409.023 483.469C412.778 492.57 413.229 505.131 408.973 514.207C404.567 523.609 397.282 532.259 387.243 535.894C377.705 539.354 365.939 540.658 356.551 535.844C340.554 527.62 324.532 519.397 308.535 511.148C285.529 499.315 262.522 487.506 239.516 475.672C252.684 452.506 265.752 429.265 278.093 405.547C283.15 408.154 288.207 410.762 293.239 413.344Z" fill="#9BB168"/>
<path d="M214.433 462.783C204.819 457.844 197.009 451.301 192.778 441.021C189.023 431.92 188.572 419.359 192.828 410.283C197.234 400.882 204.519 392.232 214.558 388.597C224.096 385.137 215.759 371.372 225.147 376.211C236.112 381.852 267.155 399.929 278.12 405.57C265.778 429.313 252.735 452.554 239.542 475.695C237.038 474.417 234.51 473.113 232.007 471.834C226.149 468.826 220.291 465.817 214.433 462.783Z" fill="#CFD9B5"/>
<path d="M210.124 406.748C207.094 386.415 204.065 366.057 201.036 345.724C200.16 339.807 204.416 333.288 210.574 332.611C216.708 331.934 222.716 335.821 223.667 342.164C226.696 362.497 229.725 382.855 232.755 403.188C233.631 409.105 229.375 415.623 223.217 416.3C217.083 416.977 211.075 413.091 210.124 406.748Z" fill="#CFD9B5"/>
<path d="M211.227 406.444C209.375 394.034 207.547 381.648 205.695 369.238C204.819 363.296 203.917 357.329 203.041 351.387C202.165 345.495 200.988 339.252 206.696 335.341C211.453 332.057 218.537 333.962 221.391 338.926C222.768 341.308 222.868 344.292 223.269 346.974C223.72 349.958 224.145 352.941 224.596 355.9C226.448 368.31 228.276 380.721 230.128 393.131C230.354 394.585 232.557 393.959 232.331 392.529C230.053 377.136 227.75 361.767 225.472 346.373C224.721 341.408 224.07 336.845 219.689 333.812C216.159 331.355 211.252 330.628 207.272 332.408C195.957 337.447 200.838 351.813 202.19 360.964C204.468 376.333 206.771 391.727 209.049 407.096C209.225 408.5 211.453 407.873 211.227 406.444Z" fill="#4F3422"/>
<path d="M204.643 445.333C199.461 412.163 194.279 378.968 189.097 345.799C188.17 339.882 192.376 333.338 198.56 332.611C204.693 331.884 210.726 335.745 211.728 342.088C216.91 375.258 222.092 408.452 227.274 441.622C228.2 447.539 223.994 454.083 217.811 454.81C211.677 455.537 205.644 451.676 204.643 445.333Z" fill="#CFD9B5"/>
<path d="M199.935 411.937C197.882 398.122 195.829 384.308 193.776 370.468C192.825 364.05 191.873 357.631 190.922 351.213C189.971 344.795 189.045 336.672 196.805 334.039C202.638 332.058 209.072 335.945 210.374 341.836C211.776 348.305 212.377 355.049 213.328 361.593C215.381 375.407 217.433 389.222 219.486 403.036C219.712 404.49 221.915 403.863 221.689 402.434C219.787 389.598 217.859 376.761 215.956 363.949C215.005 357.531 214.054 351.113 213.103 344.694C212.477 340.558 211.676 336.972 208.296 334.215C202.388 329.376 193.426 330.679 189.495 337.323C187.142 341.31 187.693 345.221 188.344 349.583C189.295 356.002 190.246 362.42 191.198 368.838C193.376 383.405 195.528 397.947 197.706 412.513C197.932 414.017 200.16 413.391 199.935 411.937Z" fill="#4F3422"/>
<path d="M203.366 354.097C207.046 378.818 210.726 403.538 214.407 428.259C215.283 434.176 211.027 440.694 204.868 441.371C198.735 442.048 192.727 438.162 191.776 431.819C188.095 407.099 184.415 382.378 180.735 357.657C179.859 351.74 184.115 345.222 190.273 344.545C196.407 343.868 202.415 347.754 203.366 354.097Z" fill="#CFD9B5"/>
<path d="M194.804 444.505C191.249 420.662 187.695 396.794 184.165 372.951C183.364 367.511 181.786 361.644 181.786 356.153C181.761 348.807 188.871 343.743 195.756 346.375C201.814 348.707 202.29 354.423 203.116 360.014C203.917 365.43 204.718 370.845 205.544 376.261C207.296 388.094 209.074 399.928 210.826 411.787C211.052 413.241 213.255 412.614 213.029 411.185C211.202 398.975 209.399 386.766 207.572 374.531C206.696 368.589 205.794 362.647 204.918 356.705C204.142 351.565 202.64 347.127 197.683 344.695C187.544 339.731 178.357 348.682 179.784 358.936C181.661 372.324 183.764 385.662 185.742 399.026C188.02 414.394 190.323 429.738 192.601 445.107C192.802 446.586 195.03 445.96 194.804 444.505Z" fill="#4F3422"/>
<path d="M5.64479 458.246C35.0351 442.551 64.4503 426.856 93.8406 411.161C97.9963 408.93 102.152 406.724 106.308 404.492C107.609 403.79 106.458 401.81 105.156 402.512C75.7658 418.206 46.3506 433.901 16.9603 449.596C12.8046 451.827 8.64891 454.034 4.49321 456.265C3.1664 456.967 4.34301 458.948 5.64479 458.246Z" fill="#4F3422"/>
<path d="M365.288 449.093C339.979 435.931 314.694 422.743 289.384 409.58C285.854 407.75 282.325 405.895 278.77 404.065C277.468 403.388 276.291 405.368 277.618 406.045C302.928 419.208 328.213 432.396 353.522 445.558C357.052 447.388 360.582 449.244 364.137 451.074C365.439 451.751 366.59 449.77 365.288 449.093Z" fill="#4F3422"/>
<path d="M22.8198 435.731C28.2272 437.211 33.6346 438.665 39.0671 440.144C40.494 440.52 41.0949 438.314 39.6679 437.938C34.2605 436.458 28.8531 435.004 23.4207 433.525C21.9937 433.124 21.3929 435.33 22.8198 435.731Z" fill="#4F3422"/>
<path d="M342.282 438.138C346.612 436.784 350.843 435.155 354.974 433.249C356.301 432.648 355.149 430.667 353.822 431.269C349.867 433.074 345.811 434.628 341.681 435.932C340.279 436.358 340.88 438.59 342.282 438.138Z" fill="#4F3422"/>
<path d="M292.965 224.88C297.17 234.031 308.736 233.53 315.771 228.215C323.306 222.498 330.892 210.238 327.587 200.486C325.134 193.24 314.069 188.852 309.888 197.226C308.085 200.812 309.512 205.099 312.291 207.781C315.846 211.191 321.278 211.768 325.96 211.918C337.05 212.294 350.018 207.305 351.72 194.895C352.121 192.011 347.715 190.758 347.314 193.666C346.062 202.667 337.551 206.929 329.214 207.305C325.259 207.481 320.352 207.506 316.822 205.425C314.895 204.296 313.292 202.216 313.843 199.934C314.394 197.577 317.123 196.8 319.226 197.477C323.532 198.881 324.157 204.296 323.431 208.057C322.555 212.57 320.027 217.033 317.123 220.543C312.391 226.234 301.251 231.95 296.945 222.524C295.668 219.891 291.738 222.223 292.965 224.88Z" fill="#4F3422"/>
<path d="M46.0487 163.753C45.2226 174.584 54.2349 183.96 65.1499 182.882C75.8145 181.804 83.0744 171.299 80.3457 160.895C79.3443 157.109 76.165 152.646 71.809 155.103C67.4531 157.56 66.5268 164.104 67.1276 168.541C68.8049 180.827 80.2205 187.119 91.0354 190.329C93.8642 191.181 95.0659 186.743 92.262 185.916C85.5028 183.91 78.2679 180.952 74.2624 174.809C72.2596 171.726 71.058 167.789 71.6588 164.079C71.784 163.352 71.9592 162.599 72.2346 161.923C72.535 161.095 73.8118 159.115 75.0134 159.691C76.1149 160.218 76.3402 164.48 76.3402 165.282C76.3903 172.703 70.3821 178.595 62.9719 178.395C55.2363 178.194 50.0792 171.174 50.63 163.753C50.8553 160.819 46.274 160.819 46.0487 163.753Z" fill="#4F3422"/>
<path d="M50.0311 338.3C55.8641 343.816 65.1268 344.844 71.9612 340.482C75.6913 338.1 77.9444 334.339 79.4965 330.303C81.0486 326.166 82.9512 320.6 80.4728 316.413C78.7455 313.48 74.6899 311.574 71.5356 313.379C68.3312 315.209 67.8806 319.346 68.8819 322.555C71.3353 330.503 80.5479 334.464 88.2835 334.063C99.2736 333.487 107.585 325.163 113.518 316.639C115.195 314.207 111.24 311.925 109.563 314.332C105.232 320.55 99.6241 326.667 92.1138 328.823C86.0054 330.578 77.9944 329.049 74.3394 323.408C73.6635 322.355 72.587 320.449 72.9625 319.121C74.064 315.184 76.3672 318.494 76.7928 319.873C77.1933 321.177 76.9931 322.38 76.7177 323.684C75.9666 327.444 74.4646 331.782 71.811 334.64C66.9793 339.83 58.2924 339.805 53.2605 335.016C51.1326 333.01 47.8782 336.27 50.0311 338.3Z" fill="#4F3422"/>
<path d="M241.166 158.589C237.011 151.97 237.586 142.769 243.57 137.378C248.727 132.74 261.069 130.584 265.224 137.83C266.626 140.287 265.6 143.621 262.245 142.894C259.642 142.318 258.465 139.635 258.265 137.203C257.939 133.392 259.391 129.431 261.319 126.222C265.224 119.753 272.109 115.315 279.619 114.588C282.523 114.313 282.548 109.724 279.619 110C270.431 110.853 262.145 115.942 257.364 123.89C253.358 130.534 250.629 143.596 260.167 147.031C263.522 148.234 267.552 147.457 269.505 144.273C271.959 140.312 270.106 135.473 266.801 132.665C259.767 126.748 248.576 127.701 241.592 133.091C233.155 139.61 231.653 152.045 237.211 160.896C238.788 163.403 242.743 161.096 241.166 158.589Z" fill="#4F3422"/>
<path d="M127.916 39.5502C121.487 37.1727 117.649 30.0723 119.441 23.9357C121.232 17.7991 128.428 13.3975 135.272 14.2971C138.791 14.7469 141.989 16.3855 145.091 17.9919C149.025 20.016 152.959 22.0401 156.893 24.0963C147.074 20.9156 142.309 9.7991 144.484 0.449675C146.019 -6.26521 151.072 -12.7231 158.301 -14.4901C164.218 -15.9359 170.486 -14.1046 175.924 -11.5343C192.747 -3.59853 204.549 11.02 214.56 25.7349C211.425 21.7509 214.912 15.6786 219.965 14.0722C225.018 12.4979 230.584 14.1365 235.349 16.3533C246 21.269 254.891 30.6184 261 40L127.916 39.5502Z" fill="#F2F5EB"/>
<g filter="url(#filter0_ddddd_4002_13888)">
<rect x="-293" y="472" width="960" height="960" rx="480" fill="white"/>
<rect x="97.5" y="542" width="180" height="8" rx="4" fill="#E8DDD9"/>
<rect width="118.688" height="8" rx="4" transform="matrix(1 0 0 -1 97.5 550)" fill="#926247"/>
<path d="M29.5371 604V583H37.2771C38.4271 583 39.4621 583.29 40.3821 583.87C41.3121 584.45 42.0521 585.225 42.6021 586.195C43.1521 587.155 43.4271 588.215 43.4271 589.375C43.4271 590.555 43.1471 591.63 42.5871 592.6C42.0271 593.56 41.2771 594.325 40.3371 594.895C39.4071 595.465 38.3871 595.75 37.2771 595.75H33.6771V604H29.5371ZM33.6771 591.61H36.8121C37.2721 591.61 37.6871 591.5 38.0571 591.28C38.4271 591.05 38.7221 590.745 38.9421 590.365C39.1721 589.975 39.2871 589.545 39.2871 589.075C39.2871 588.615 39.1721 588.195 38.9421 587.815C38.7221 587.425 38.4271 587.115 38.0571 586.885C37.6871 586.655 37.2721 586.54 36.8121 586.54H33.6771V591.61ZM51.423 604.39C50.043 604.39 48.783 604.035 47.643 603.325C46.513 602.615 45.608 601.66 44.928 600.46C44.258 599.26 43.923 597.935 43.923 596.485C43.923 595.395 44.118 594.375 44.508 593.425C44.898 592.465 45.433 591.625 46.113 590.905C46.803 590.175 47.603 589.605 48.513 589.195C49.423 588.785 50.393 588.58 51.423 588.58C52.613 588.58 53.698 588.835 54.678 589.345C55.668 589.855 56.503 590.55 57.183 591.43C57.873 592.31 58.363 593.305 58.653 594.415C58.953 595.525 59.003 596.68 58.803 597.88H48.393C48.523 598.32 48.723 598.72 48.993 599.08C49.273 599.43 49.613 599.71 50.013 599.92C50.423 600.13 50.893 600.24 51.423 600.25C51.943 600.26 52.423 600.14 52.863 599.89C53.303 599.64 53.678 599.305 53.988 598.885L58.218 599.86C57.608 601.19 56.698 602.28 55.488 603.13C54.278 603.97 52.923 604.39 51.423 604.39ZM48.243 594.82H54.618C54.488 594.32 54.268 593.87 53.958 593.47C53.648 593.07 53.273 592.755 52.833 592.525C52.403 592.295 51.933 592.18 51.423 592.18C50.923 592.18 50.453 592.295 50.013 592.525C49.583 592.755 49.213 593.07 48.903 593.47C48.603 593.86 48.383 594.31 48.243 594.82ZM60.915 604L60.9 589H65.04L65.055 590.11C65.555 589.63 66.14 589.255 66.81 588.985C67.49 588.715 68.205 588.58 68.955 588.58C69.505 588.58 70.055 588.66 70.605 588.82L68.97 593.005C68.61 592.855 68.245 592.78 67.875 592.78C67.355 592.78 66.88 592.905 66.45 593.155C66.02 593.405 65.68 593.745 65.43 594.175C65.18 594.595 65.055 595.07 65.055 595.6V604H60.915ZM76.215 604.27C75.445 604.21 74.705 604.05 73.995 603.79C73.285 603.52 72.65 603.16 72.09 602.71C71.54 602.25 71.11 601.7 70.8 601.06L74.28 599.56C74.39 599.72 74.555 599.895 74.775 600.085C74.995 600.265 75.26 600.425 75.57 600.565C75.89 600.705 76.26 600.775 76.68 600.775C76.99 600.775 77.29 600.74 77.58 600.67C77.87 600.59 78.105 600.465 78.285 600.295C78.465 600.115 78.555 599.88 78.555 599.59C78.555 599.27 78.44 599.025 78.21 598.855C77.98 598.685 77.7 598.56 77.37 598.48C77.05 598.39 76.74 598.315 76.44 598.255C75.52 598.095 74.65 597.81 73.83 597.4C73.02 596.98 72.36 596.44 71.85 595.78C71.34 595.12 71.085 594.33 71.085 593.41C71.085 592.4 71.35 591.53 71.88 590.8C72.41 590.06 73.1 589.49 73.95 589.09C74.8 588.69 75.72 588.49 76.71 588.49C77.88 588.49 78.965 588.735 79.965 589.225C80.965 589.715 81.77 590.405 82.38 591.295L79.11 593.23C78.98 593.04 78.81 592.86 78.6 592.69C78.4 592.51 78.165 592.36 77.895 592.24C77.635 592.11 77.355 592.035 77.055 592.015C76.665 591.985 76.31 592.01 75.99 592.09C75.67 592.16 75.415 592.295 75.225 592.495C75.045 592.695 74.955 592.965 74.955 593.305C74.955 593.635 75.1 593.88 75.39 594.04C75.68 594.19 76.015 594.305 76.395 594.385C76.775 594.455 77.11 594.54 77.4 594.64C78.27 594.92 79.085 595.28 79.845 595.72C80.615 596.15 81.235 596.68 81.705 597.31C82.175 597.94 82.395 598.68 82.365 599.53C82.365 600.52 82.07 601.39 81.48 602.14C80.89 602.88 80.125 603.445 79.185 603.835C78.255 604.215 77.265 604.36 76.215 604.27ZM90.9234 604.39C89.5434 604.39 88.2834 604.035 87.1434 603.325C86.0134 602.615 85.1084 601.665 84.4284 600.475C83.7584 599.275 83.4234 597.95 83.4234 596.5C83.4234 595.4 83.6184 594.375 84.0084 593.425C84.3984 592.465 84.9334 591.625 85.6134 590.905C86.3034 590.175 87.1034 589.605 88.0134 589.195C88.9234 588.785 89.8934 588.58 90.9234 588.58C92.3034 588.58 93.5584 588.935 94.6884 589.645C95.8284 590.355 96.7334 591.31 97.4034 592.51C98.0834 593.71 98.4234 595.04 98.4234 596.5C98.4234 597.59 98.2284 598.61 97.8384 599.56C97.4484 600.51 96.9084 601.35 96.2184 602.08C95.5384 602.8 94.7434 603.365 93.8334 603.775C92.9334 604.185 91.9634 604.39 90.9234 604.39ZM90.9234 600.25C91.5634 600.25 92.1384 600.08 92.6484 599.74C93.1584 599.39 93.5584 598.93 93.8484 598.36C94.1384 597.79 94.2834 597.17 94.2834 596.5C94.2834 595.81 94.1284 595.18 93.8184 594.61C93.5184 594.03 93.1134 593.57 92.6034 593.23C92.0934 592.89 91.5334 592.72 90.9234 592.72C90.2934 592.72 89.7234 592.895 89.2134 593.245C88.7034 593.595 88.2984 594.055 87.9984 594.625C87.7084 595.195 87.5634 595.82 87.5634 596.5C87.5634 597.21 87.7134 597.85 88.0134 598.42C88.3234 598.98 88.7334 599.425 89.2434 599.755C89.7534 600.085 90.3134 600.25 90.9234 600.25ZM114.335 594.46V604H110.195V595.6C110.195 595.07 110.065 594.595 109.805 594.175C109.555 593.745 109.215 593.405 108.785 593.155C108.365 592.905 107.895 592.78 107.375 592.78C106.855 592.78 106.38 592.905 105.95 593.155C105.52 593.405 105.18 593.745 104.93 594.175C104.68 594.595 104.555 595.07 104.555 595.6V604H100.415L100.4 589H104.54L104.555 590.11C105.055 589.63 105.64 589.255 106.31 588.985C106.99 588.715 107.705 588.58 108.455 588.58C109.545 588.58 110.53 588.845 111.41 589.375C112.3 589.905 113.01 590.615 113.54 591.505C114.07 592.385 114.335 593.37 114.335 594.46ZM127.751 589H131.891V604H127.736L127.541 602.44C127.151 603.02 126.651 603.49 126.041 603.85C125.431 604.21 124.716 604.39 123.896 604.39C122.776 604.39 121.731 604.18 120.761 603.76C119.791 603.34 118.936 602.76 118.196 602.02C117.456 601.28 116.876 600.425 116.456 599.455C116.046 598.475 115.841 597.425 115.841 596.305C115.841 595.235 116.036 594.235 116.426 593.305C116.816 592.375 117.366 591.555 118.076 590.845C118.786 590.135 119.601 589.58 120.521 589.18C121.451 588.78 122.451 588.58 123.521 588.58C124.441 588.58 125.266 588.775 125.996 589.165C126.736 589.555 127.381 590.05 127.931 590.65L127.751 589ZM123.791 600.415C124.471 600.415 125.086 600.24 125.636 599.89C126.186 599.54 126.621 599.07 126.941 598.48C127.261 597.88 127.421 597.22 127.421 596.5C127.421 595.77 127.261 595.11 126.941 594.52C126.621 593.93 126.186 593.46 125.636 593.11C125.086 592.76 124.471 592.585 123.791 592.585C123.101 592.585 122.476 592.76 121.916 593.11C121.356 593.46 120.911 593.935 120.581 594.535C120.251 595.125 120.086 595.78 120.086 596.5C120.086 597.22 120.251 597.88 120.581 598.48C120.921 599.07 121.371 599.54 121.931 599.89C122.491 600.24 123.111 600.415 123.791 600.415ZM134.634 604V581.5H138.774V604H134.634ZM142.069 589H146.209V604H142.069V589ZM144.169 587.275C143.569 587.275 143.064 587.075 142.654 586.675C142.244 586.275 142.039 585.78 142.039 585.19C142.039 584.6 142.244 584.105 142.654 583.705C143.064 583.305 143.564 583.105 144.154 583.105C144.744 583.105 145.239 583.305 145.639 583.705C146.049 584.105 146.254 584.6 146.254 585.19C146.254 585.78 146.054 586.275 145.654 586.675C145.264 587.075 144.769 587.275 144.169 587.275ZM161.713 593.14L154.888 599.86H161.713V604H148.903V599.86L155.728 593.14H148.903V589H161.713V593.14ZM170.598 604.39C169.218 604.39 167.958 604.035 166.818 603.325C165.688 602.615 164.783 601.66 164.103 600.46C163.433 599.26 163.098 597.935 163.098 596.485C163.098 595.395 163.293 594.375 163.683 593.425C164.073 592.465 164.608 591.625 165.288 590.905C165.978 590.175 166.778 589.605 167.688 589.195C168.598 588.785 169.568 588.58 170.598 588.58C171.788 588.58 172.873 588.835 173.853 589.345C174.843 589.855 175.678 590.55 176.358 591.43C177.048 592.31 177.538 593.305 177.828 594.415C178.128 595.525 178.178 596.68 177.978 597.88H167.568C167.698 598.32 167.898 598.72 168.168 599.08C168.448 599.43 168.788 599.71 169.188 599.92C169.598 600.13 170.068 600.24 170.598 600.25C171.118 600.26 171.598 600.14 172.038 599.89C172.478 599.64 172.853 599.305 173.163 598.885L177.393 599.86C176.783 601.19 175.873 602.28 174.663 603.13C173.453 603.97 172.098 604.39 170.598 604.39ZM167.418 594.82H173.793C173.663 594.32 173.443 593.87 173.133 593.47C172.823 593.07 172.448 592.755 172.008 592.525C171.578 592.295 171.108 592.18 170.598 592.18C170.098 592.18 169.628 592.295 169.188 592.525C168.758 592.755 168.388 593.07 168.078 593.47C167.778 593.86 167.558 594.31 167.418 594.82ZM200.262 583H205.152L197.892 594.535V604H193.752V594.535L186.492 583H191.382L195.822 590.035L200.262 583ZM210.714 604.39C209.334 604.39 208.074 604.035 206.934 603.325C205.804 602.615 204.899 601.665 204.219 600.475C203.549 599.275 203.214 597.95 203.214 596.5C203.214 595.4 203.409 594.375 203.799 593.425C204.189 592.465 204.724 591.625 205.404 590.905C206.094 590.175 206.894 589.605 207.804 589.195C208.714 588.785 209.684 588.58 210.714 588.58C212.094 588.58 213.349 588.935 214.479 589.645C215.619 590.355 216.524 591.31 217.194 592.51C217.874 593.71 218.214 595.04 218.214 596.5C218.214 597.59 218.019 598.61 217.629 599.56C217.239 600.51 216.699 601.35 216.009 602.08C215.329 602.8 214.534 603.365 213.624 603.775C212.724 604.185 211.754 604.39 210.714 604.39ZM210.714 600.25C211.354 600.25 211.929 600.08 212.439 599.74C212.949 599.39 213.349 598.93 213.639 598.36C213.929 597.79 214.074 597.17 214.074 596.5C214.074 595.81 213.919 595.18 213.609 594.61C213.309 594.03 212.904 593.57 212.394 593.23C211.884 592.89 211.324 592.72 210.714 592.72C210.084 592.72 209.514 592.895 209.004 593.245C208.494 593.595 208.089 594.055 207.789 594.625C207.499 595.195 207.354 595.82 207.354 596.5C207.354 597.21 207.504 597.85 207.804 598.42C208.114 598.98 208.524 599.425 209.034 599.755C209.544 600.085 210.104 600.25 210.714 600.25ZM219.21 598.51V589H223.35V597.37C223.35 597.9 223.475 598.38 223.725 598.81C223.985 599.23 224.33 599.565 224.76 599.815C225.19 600.065 225.66 600.19 226.17 600.19C226.69 600.19 227.165 600.065 227.595 599.815C228.025 599.565 228.365 599.23 228.615 598.81C228.865 598.38 228.99 597.9 228.99 597.37V589H233.13L233.145 604H229.005L228.99 602.86C228.49 603.34 227.9 603.715 227.22 603.985C226.55 604.255 225.84 604.39 225.09 604.39C224.01 604.39 223.025 604.125 222.135 603.595C221.245 603.065 220.535 602.36 220.005 601.48C219.475 600.59 219.21 599.6 219.21 598.51ZM235.872 604L235.857 589H239.997L240.012 590.11C240.512 589.63 241.097 589.255 241.767 588.985C242.447 588.715 243.162 588.58 243.912 588.58C244.462 588.58 245.012 588.66 245.562 588.82L243.927 593.005C243.567 592.855 243.202 592.78 242.832 592.78C242.312 592.78 241.837 592.905 241.407 593.155C240.977 593.405 240.637 593.745 240.387 594.175C240.137 594.595 240.012 595.07 240.012 595.6V604H235.872ZM254.271 604L258.351 583H261.846L266.721 595.855L271.611 583H275.106L279.186 604H274.956L272.631 591.955L268.146 603.79H265.296L260.826 591.955L258.486 604H254.271ZM287.378 604.39C285.998 604.39 284.738 604.035 283.598 603.325C282.468 602.615 281.563 601.66 280.883 600.46C280.213 599.26 279.878 597.935 279.878 596.485C279.878 595.395 280.073 594.375 280.463 593.425C280.853 592.465 281.388 591.625 282.068 590.905C282.758 590.175 283.558 589.605 284.468 589.195C285.378 588.785 286.348 588.58 287.378 588.58C288.568 588.58 289.653 588.835 290.633 589.345C291.623 589.855 292.458 590.55 293.138 591.43C293.828 592.31 294.318 593.305 294.608 594.415C294.908 595.525 294.958 596.68 294.758 597.88H284.348C284.478 598.32 284.678 598.72 284.948 599.08C285.228 599.43 285.568 599.71 285.968 599.92C286.378 600.13 286.848 600.24 287.378 600.25C287.898 600.26 288.378 600.14 288.818 599.89C289.258 599.64 289.633 599.305 289.943 598.885L294.173 599.86C293.563 601.19 292.653 602.28 291.443 603.13C290.233 603.97 288.878 604.39 287.378 604.39ZM284.198 594.82H290.573C290.443 594.32 290.223 593.87 289.913 593.47C289.603 593.07 289.228 592.755 288.788 592.525C288.358 592.295 287.888 592.18 287.378 592.18C286.878 592.18 286.408 592.295 285.968 592.525C285.538 592.755 285.168 593.07 284.858 593.47C284.558 593.86 284.338 594.31 284.198 594.82ZM310.79 594.46V604H306.65V595.6C306.65 595.07 306.52 594.595 306.26 594.175C306.01 593.745 305.67 593.405 305.24 593.155C304.82 592.905 304.35 592.78 303.83 592.78C303.31 592.78 302.835 592.905 302.405 593.155C301.975 593.405 301.635 593.745 301.385 594.175C301.135 594.595 301.01 595.07 301.01 595.6V604H296.87L296.855 589H300.995L301.01 590.11C301.51 589.63 302.095 589.255 302.765 588.985C303.445 588.715 304.16 588.58 304.91 588.58C306 588.58 306.985 588.845 307.865 589.375C308.755 589.905 309.465 590.615 309.995 591.505C310.525 592.385 310.79 593.37 310.79 594.46ZM321.648 593.14H318.948V604H314.808V593.14H312.738V589H314.808V584.29H318.948V589H321.648V593.14ZM334.745 589H338.885V604H334.73L334.535 602.44C334.145 603.02 333.645 603.49 333.035 603.85C332.425 604.21 331.71 604.39 330.89 604.39C329.77 604.39 328.725 604.18 327.755 603.76C326.785 603.34 325.93 602.76 325.19 602.02C324.45 601.28 323.87 600.425 323.45 599.455C323.04 598.475 322.835 597.425 322.835 596.305C322.835 595.235 323.03 594.235 323.42 593.305C323.81 592.375 324.36 591.555 325.07 590.845C325.78 590.135 326.595 589.58 327.515 589.18C328.445 588.78 329.445 588.58 330.515 588.58C331.435 588.58 332.26 588.775 332.99 589.165C333.73 589.555 334.375 590.05 334.925 590.65L334.745 589ZM330.785 600.415C331.465 600.415 332.08 600.24 332.63 599.89C333.18 599.54 333.615 599.07 333.935 598.48C334.255 597.88 334.415 597.22 334.415 596.5C334.415 595.77 334.255 595.11 333.935 594.52C333.615 593.93 333.18 593.46 332.63 593.11C332.08 592.76 331.465 592.585 330.785 592.585C330.095 592.585 329.47 592.76 328.91 593.11C328.35 593.46 327.905 593.935 327.575 594.535C327.245 595.125 327.08 595.78 327.08 596.5C327.08 597.22 327.245 597.88 327.575 598.48C327.915 599.07 328.365 599.54 328.925 599.89C329.485 600.24 330.105 600.415 330.785 600.415ZM341.628 604V581.5H345.768V604H341.628ZM232.223 642L226.853 621H231.128L234.548 634.425L237.968 621H241.763L245.183 634.425L248.603 621H252.878L247.538 642H242.858L239.873 630.33L236.903 642H232.223ZM254.454 627H258.594V642H254.454V627ZM256.554 625.275C255.954 625.275 255.449 625.075 255.039 624.675C254.629 624.275 254.424 623.78 254.424 623.19C254.424 622.6 254.629 622.105 255.039 621.705C255.449 621.305 255.949 621.105 256.539 621.105C257.129 621.105 257.624 621.305 258.024 621.705C258.434 622.105 258.639 622.6 258.639 623.19C258.639 623.78 258.439 624.275 258.039 624.675C257.649 625.075 257.154 625.275 256.554 625.275ZM270.048 631.14H267.348V642H263.208V631.14H261.138V627H263.208V622.29H267.348V627H270.048V631.14ZM286.392 632.46V642H282.252V633.6C282.252 633.07 282.122 632.595 281.862 632.175C281.612 631.745 281.272 631.405 280.842 631.155C280.422 630.905 279.952 630.78 279.432 630.78C278.912 630.78 278.437 630.905 278.007 631.155C277.577 631.405 277.237 631.745 276.987 632.175C276.737 632.595 276.612 633.07 276.612 633.6V642H272.472L272.457 619.5H276.597L276.612 628.11C277.112 627.63 277.697 627.255 278.367 626.985C279.047 626.715 279.762 626.58 280.512 626.58C281.602 626.58 282.587 626.845 283.467 627.375C284.357 627.905 285.067 628.615 285.597 629.505C286.127 630.385 286.392 631.37 286.392 632.46ZM303.018 621H307.728L315.348 642H310.953L309.693 638.52H301.053L299.793 642H295.398L303.018 621ZM302.568 634.38H308.178L305.358 626.685L302.568 634.38ZM317.945 642V621H322.085V642H317.945Z" fill="#4F3422"/>
<path d="M64.5825 621H68.7225V642H64.5825V632.82H56.6025V642H52.4625V621H56.6025V628.68H64.5825V621ZM78.3328 642.39C76.9528 642.39 75.6928 642.035 74.5528 641.325C73.4228 640.615 72.5178 639.66 71.8378 638.46C71.1678 637.26 70.8328 635.935 70.8328 634.485C70.8328 633.395 71.0278 632.375 71.4178 631.425C71.8078 630.465 72.3428 629.625 73.0228 628.905C73.7128 628.175 74.5128 627.605 75.4228 627.195C76.3328 626.785 77.3028 626.58 78.3328 626.58C79.5228 626.58 80.6078 626.835 81.5878 627.345C82.5778 627.855 83.4128 628.55 84.0928 629.43C84.7828 630.31 85.2728 631.305 85.5628 632.415C85.8628 633.525 85.9128 634.68 85.7128 635.88H75.3028C75.4328 636.32 75.6328 636.72 75.9028 637.08C76.1828 637.43 76.5228 637.71 76.9228 637.92C77.3328 638.13 77.8028 638.24 78.3328 638.25C78.8528 638.26 79.3328 638.14 79.7728 637.89C80.2128 637.64 80.5878 637.305 80.8978 636.885L85.1278 637.86C84.5178 639.19 83.6078 640.28 82.3978 641.13C81.1878 641.97 79.8328 642.39 78.3328 642.39ZM75.1528 632.82H81.5278C81.3978 632.32 81.1778 631.87 80.8678 631.47C80.5578 631.07 80.1828 630.755 79.7428 630.525C79.3128 630.295 78.8428 630.18 78.3328 630.18C77.8328 630.18 77.3628 630.295 76.9228 630.525C76.4928 630.755 76.1228 631.07 75.8128 631.47C75.5128 631.86 75.2928 632.31 75.1528 632.82ZM98.937 627H103.077V642H98.922L98.727 640.44C98.337 641.02 97.837 641.49 97.227 641.85C96.617 642.21 95.902 642.39 95.082 642.39C93.962 642.39 92.917 642.18 91.947 641.76C90.977 641.34 90.122 640.76 89.382 640.02C88.642 639.28 88.062 638.425 87.642 637.455C87.232 636.475 87.027 635.425 87.027 634.305C87.027 633.235 87.222 632.235 87.612 631.305C88.002 630.375 88.552 629.555 89.262 628.845C89.972 628.135 90.787 627.58 91.707 627.18C92.637 626.78 93.637 626.58 94.707 626.58C95.627 626.58 96.452 626.775 97.182 627.165C97.922 627.555 98.567 628.05 99.117 628.65L98.937 627ZM94.977 638.415C95.657 638.415 96.272 638.24 96.822 637.89C97.372 637.54 97.807 637.07 98.127 636.48C98.447 635.88 98.607 635.22 98.607 634.5C98.607 633.77 98.447 633.11 98.127 632.52C97.807 631.93 97.372 631.46 96.822 631.11C96.272 630.76 95.657 630.585 94.977 630.585C94.287 630.585 93.662 630.76 93.102 631.11C92.542 631.46 92.097 631.935 91.767 632.535C91.437 633.125 91.272 633.78 91.272 634.5C91.272 635.22 91.437 635.88 91.767 636.48C92.107 637.07 92.557 637.54 93.117 637.89C93.677 638.24 94.297 638.415 94.977 638.415ZM105.82 642V619.5H109.96V642H105.82ZM121.415 631.14H118.715V642H114.575V631.14H112.505V627H114.575V622.29H118.715V627H121.415V631.14ZM137.759 632.46V642H133.619V633.6C133.619 633.07 133.489 632.595 133.229 632.175C132.979 631.745 132.639 631.405 132.209 631.155C131.789 630.905 131.319 630.78 130.799 630.78C130.279 630.78 129.804 630.905 129.374 631.155C128.944 631.405 128.604 631.745 128.354 632.175C128.104 632.595 127.979 633.07 127.979 633.6V642H123.839L123.824 619.5H127.964L127.979 628.11C128.479 627.63 129.064 627.255 129.734 626.985C130.414 626.715 131.129 626.58 131.879 626.58C132.969 626.58 133.954 626.845 134.834 627.375C135.724 627.905 136.434 628.615 136.964 629.505C137.494 630.385 137.759 631.37 137.759 632.46ZM154.999 642.39C153.819 642.39 152.689 642.205 151.609 641.835C150.539 641.465 149.599 640.93 148.789 640.23C147.989 639.53 147.414 638.7 147.064 637.74L150.949 636.3C151.069 636.64 151.319 636.96 151.699 637.26C152.079 637.55 152.554 637.79 153.124 637.98C153.694 638.16 154.319 638.25 154.999 638.25C155.649 638.25 156.259 638.155 156.829 637.965C157.409 637.765 157.874 637.49 158.224 637.14C158.584 636.79 158.764 636.38 158.764 635.91C158.764 635.44 158.579 635.05 158.209 634.74C157.839 634.43 157.364 634.185 156.784 634.005C156.204 633.815 155.609 633.67 154.999 633.57C153.489 633.35 152.134 632.995 150.934 632.505C149.744 632.005 148.804 631.32 148.114 630.45C147.424 629.57 147.079 628.455 147.079 627.105C147.079 625.805 147.444 624.67 148.174 623.7C148.914 622.73 149.884 621.975 151.084 621.435C152.294 620.895 153.599 620.625 154.999 620.625C156.159 620.625 157.279 620.81 158.359 621.18C159.439 621.55 160.379 622.085 161.179 622.785C161.989 623.485 162.569 624.325 162.919 625.305L159.034 626.715C158.914 626.375 158.664 626.06 158.284 625.77C157.904 625.48 157.429 625.245 156.859 625.065C156.289 624.885 155.669 624.795 154.999 624.795C154.359 624.785 153.749 624.88 153.169 625.08C152.599 625.28 152.129 625.555 151.759 625.905C151.399 626.255 151.219 626.655 151.219 627.105C151.219 627.695 151.389 628.14 151.729 628.44C152.079 628.74 152.539 628.955 153.109 629.085C153.679 629.215 154.309 629.33 154.999 629.43C156.419 629.64 157.729 630.015 158.929 630.555C160.129 631.085 161.089 631.795 161.809 632.685C162.539 633.565 162.904 634.64 162.904 635.91C162.904 637.21 162.539 638.345 161.809 639.315C161.079 640.285 160.114 641.04 158.914 641.58C157.714 642.12 156.409 642.39 154.999 642.39ZM173.681 631.14H170.981V642H166.841V631.14H164.771V627H166.841V622.29H170.981V627H173.681V631.14ZM186.778 627H190.918V642H186.763L186.568 640.44C186.178 641.02 185.678 641.49 185.068 641.85C184.458 642.21 183.743 642.39 182.923 642.39C181.803 642.39 180.758 642.18 179.788 641.76C178.818 641.34 177.963 640.76 177.223 640.02C176.483 639.28 175.903 638.425 175.483 637.455C175.073 636.475 174.868 635.425 174.868 634.305C174.868 633.235 175.063 632.235 175.453 631.305C175.843 630.375 176.393 629.555 177.103 628.845C177.813 628.135 178.628 627.58 179.548 627.18C180.478 626.78 181.478 626.58 182.548 626.58C183.468 626.58 184.293 626.775 185.023 627.165C185.763 627.555 186.408 628.05 186.958 628.65L186.778 627ZM182.818 638.415C183.498 638.415 184.113 638.24 184.663 637.89C185.213 637.54 185.648 637.07 185.968 636.48C186.288 635.88 186.448 635.22 186.448 634.5C186.448 633.77 186.288 633.11 185.968 632.52C185.648 631.93 185.213 631.46 184.663 631.11C184.113 630.76 183.498 630.585 182.818 630.585C182.128 630.585 181.503 630.76 180.943 631.11C180.383 631.46 179.938 631.935 179.608 632.535C179.278 633.125 179.113 633.78 179.113 634.5C179.113 635.22 179.278 635.88 179.608 636.48C179.948 637.07 180.398 637.54 180.958 637.89C181.518 638.24 182.138 638.415 182.818 638.415ZM201.792 631.14H199.092V642H194.952V631.14H192.882V627H194.952V622.29H199.092V627H201.792V631.14ZM210.479 642.39C209.099 642.39 207.839 642.035 206.699 641.325C205.569 640.615 204.664 639.66 203.984 638.46C203.314 637.26 202.979 635.935 202.979 634.485C202.979 633.395 203.174 632.375 203.564 631.425C203.954 630.465 204.489 629.625 205.169 628.905C205.859 628.175 206.659 627.605 207.569 627.195C208.479 626.785 209.449 626.58 210.479 626.58C211.669 626.58 212.754 626.835 213.734 627.345C214.724 627.855 215.559 628.55 216.239 629.43C216.929 630.31 217.419 631.305 217.709 632.415C218.009 633.525 218.059 634.68 217.859 635.88H207.449C207.579 636.32 207.779 636.72 208.049 637.08C208.329 637.43 208.669 637.71 209.069 637.92C209.479 638.13 209.949 638.24 210.479 638.25C210.999 638.26 211.479 638.14 211.919 637.89C212.359 637.64 212.734 637.305 213.044 636.885L217.274 637.86C216.664 639.19 215.754 640.28 214.544 641.13C213.334 641.97 211.979 642.39 210.479 642.39ZM207.299 632.82H213.674C213.544 632.32 213.324 631.87 213.014 631.47C212.704 631.07 212.329 630.755 211.889 630.525C211.459 630.295 210.989 630.18 210.479 630.18C209.979 630.18 209.509 630.295 209.069 630.525C208.639 630.755 208.269 631.07 207.959 631.47C207.659 631.86 207.439 632.31 207.299 632.82Z" fill="#9BB168"/>
<rect x="147.5" y="674" width="80" height="80" rx="40" fill="#4F3422"/>
<path d="M195.434 707.911C194.093 706.165 192.215 704.91 190.088 704.34L189.571 706.272C191.272 706.727 192.775 707.732 193.847 709.129C194.715 710.26 195.261 711.597 195.437 712.999L177.5 712.999V714.999L195.437 714.999C195.261 716.401 194.715 717.738 193.847 718.869C192.775 720.266 191.272 721.271 189.571 721.727L190.088 723.658C192.215 723.089 194.093 721.833 195.434 720.087C196.774 718.34 197.5 716.2 197.5 713.999C197.5 711.798 196.774 709.658 195.434 707.911Z" fill="white"/>
</g>
<rect x="140.5" y="60.5" width="95" height="39" rx="19.5" stroke="#4F3422"/>
<path d="M159.246 85.708C158.627 85.708 158.033 85.612 157.462 85.42C156.897 85.2227 156.401 84.9427 155.974 84.58C155.547 84.212 155.241 83.772 155.054 83.26L156.886 82.588C156.961 82.8013 157.113 82.996 157.342 83.172C157.571 83.348 157.851 83.4893 158.182 83.596C158.513 83.7027 158.867 83.756 159.246 83.756C159.635 83.756 159.998 83.6973 160.334 83.58C160.675 83.4573 160.95 83.2893 161.158 83.076C161.366 82.8573 161.47 82.604 161.47 82.316C161.47 82.0227 161.361 81.7827 161.142 81.596C160.923 81.404 160.643 81.252 160.302 81.14C159.961 81.028 159.609 80.9427 159.246 80.884C158.451 80.7613 157.739 80.572 157.11 80.316C156.481 80.06 155.982 79.7053 155.614 79.252C155.251 78.7987 155.07 78.212 155.07 77.492C155.07 76.8147 155.265 76.2227 155.654 75.716C156.043 75.2093 156.555 74.8147 157.19 74.532C157.825 74.2493 158.51 74.108 159.246 74.108C159.859 74.108 160.451 74.204 161.022 74.396C161.593 74.588 162.091 74.868 162.518 75.236C162.95 75.604 163.259 76.0467 163.446 76.564L161.606 77.228C161.531 77.0147 161.379 76.82 161.15 76.644C160.921 76.468 160.641 76.3293 160.31 76.228C159.979 76.1213 159.625 76.068 159.246 76.068C158.867 76.0627 158.507 76.124 158.166 76.252C157.83 76.3747 157.555 76.5427 157.342 76.756C157.129 76.9693 157.022 77.2147 157.022 77.492C157.022 77.8493 157.121 78.1187 157.318 78.3C157.521 78.4813 157.79 78.6147 158.126 78.7C158.462 78.78 158.835 78.8547 159.246 78.924C159.993 79.0413 160.683 79.2387 161.318 79.516C161.953 79.7933 162.462 80.164 162.846 80.628C163.23 81.0867 163.422 81.6493 163.422 82.316C163.422 82.9933 163.23 83.588 162.846 84.1C162.462 84.6067 161.953 85.0013 161.318 85.284C160.683 85.5667 159.993 85.708 159.246 85.708ZM169.251 79.452H167.699V85.5H165.747V79.452H164.563V77.5H165.747V74.988H167.699V77.5H169.251V79.452ZM173.982 85.708C173.246 85.708 172.574 85.5187 171.966 85.14C171.363 84.7613 170.88 84.252 170.518 83.612C170.16 82.972 169.982 82.2653 169.982 81.492C169.982 80.9107 170.086 80.3667 170.294 79.86C170.502 79.348 170.787 78.9 171.15 78.516C171.518 78.1267 171.944 77.8227 172.43 77.604C172.915 77.3853 173.432 77.276 173.982 77.276C174.606 77.276 175.176 77.4093 175.694 77.676C176.216 77.9373 176.659 78.2973 177.022 78.756C177.384 79.2147 177.648 79.7373 177.814 80.324C177.979 80.9107 178.016 81.524 177.926 82.164H172.078C172.152 82.4627 172.275 82.732 172.446 82.972C172.616 83.2067 172.832 83.396 173.094 83.54C173.355 83.6787 173.651 83.7507 173.982 83.756C174.323 83.7613 174.632 83.6813 174.91 83.516C175.192 83.3453 175.427 83.116 175.614 82.828L177.606 83.292C177.28 84.0013 176.795 84.5827 176.15 85.036C175.504 85.484 174.782 85.708 173.982 85.708ZM172.014 80.7H175.95C175.891 80.38 175.766 80.092 175.574 79.836C175.387 79.5747 175.155 79.3667 174.878 79.212C174.6 79.0573 174.302 78.98 173.982 78.98C173.662 78.98 173.366 79.0573 173.094 79.212C172.822 79.3613 172.59 79.5667 172.398 79.828C172.211 80.084 172.083 80.3747 172.014 80.7ZM181.131 89.5H179.179V77.5H181.131V78.516C181.393 78.1533 181.713 77.86 182.091 77.636C182.475 77.4067 182.923 77.292 183.435 77.292C184.022 77.292 184.569 77.4013 185.075 77.62C185.582 77.8387 186.027 78.1427 186.411 78.532C186.801 78.916 187.102 79.3613 187.315 79.868C187.534 80.3747 187.643 80.9187 187.643 81.5C187.643 82.0813 187.534 82.628 187.315 83.14C187.102 83.652 186.801 84.1027 186.411 84.492C186.027 84.876 185.582 85.1773 185.075 85.396C184.569 85.6147 184.022 85.724 183.435 85.724C182.923 85.724 182.475 85.612 182.091 85.388C181.713 85.1587 181.393 84.8627 181.131 84.5V89.5ZM183.411 79.172C183.006 79.172 182.643 79.2787 182.323 79.492C182.003 79.7 181.753 79.98 181.571 80.332C181.39 80.684 181.299 81.0733 181.299 81.5C181.299 81.9267 181.39 82.3187 181.571 82.676C181.753 83.028 182.003 83.3107 182.323 83.524C182.643 83.732 183.006 83.836 183.411 83.836C183.822 83.836 184.198 83.732 184.539 83.524C184.881 83.316 185.153 83.036 185.355 82.684C185.558 82.3267 185.659 81.932 185.659 81.5C185.659 81.0733 185.558 80.684 185.355 80.332C185.153 79.98 184.881 79.7 184.539 79.492C184.203 79.2787 183.827 79.172 183.411 79.172ZM198.033 85.708C197.276 85.708 196.564 85.5587 195.897 85.26C195.231 84.956 194.644 84.5373 194.137 84.004C193.631 83.4707 193.233 82.8547 192.945 82.156C192.657 81.452 192.513 80.7 192.513 79.9C192.513 79.1 192.657 78.3507 192.945 77.652C193.233 76.948 193.631 76.3293 194.137 75.796C194.644 75.2627 195.231 74.8467 195.897 74.548C196.564 74.244 197.276 74.092 198.033 74.092C198.796 74.092 199.511 74.244 200.177 74.548C200.844 74.8467 201.431 75.2627 201.937 75.796C202.444 76.3293 202.839 76.948 203.121 77.652C203.409 78.3507 203.553 79.1 203.553 79.9C203.553 80.7 203.409 81.452 203.121 82.156C202.839 82.8547 202.444 83.4707 201.937 84.004C201.431 84.5373 200.844 84.956 200.177 85.26C199.511 85.5587 198.796 85.708 198.033 85.708ZM198.033 83.756C198.524 83.756 198.985 83.6547 199.417 83.452C199.849 83.2493 200.228 82.972 200.553 82.62C200.884 82.2627 201.14 81.852 201.321 81.388C201.508 80.924 201.601 80.428 201.601 79.9C201.601 79.372 201.508 78.876 201.321 78.412C201.135 77.9427 200.876 77.532 200.545 77.18C200.22 76.828 199.841 76.5507 199.409 76.348C198.983 76.1453 198.524 76.044 198.033 76.044C197.543 76.044 197.081 76.1453 196.649 76.348C196.217 76.5507 195.836 76.8307 195.505 77.188C195.18 77.54 194.924 77.948 194.737 78.412C194.556 78.876 194.465 79.372 194.465 79.9C194.465 80.4333 194.559 80.932 194.745 81.396C194.932 81.86 195.188 82.2707 195.513 82.628C195.844 82.98 196.223 83.2573 196.649 83.46C197.081 83.6573 197.543 83.756 198.033 83.756ZM212.363 80.444V85.5H210.411V80.956C210.411 80.6413 210.334 80.356 210.179 80.1C210.025 79.8387 209.817 79.6333 209.555 79.484C209.299 79.3293 209.014 79.252 208.699 79.252C208.385 79.252 208.097 79.3293 207.835 79.484C207.579 79.6333 207.374 79.8387 207.219 80.1C207.07 80.356 206.995 80.6413 206.995 80.956V85.5H205.043L205.035 77.5H206.987L206.995 78.212C207.267 77.924 207.593 77.6973 207.971 77.532C208.35 77.3613 208.758 77.276 209.195 77.276C209.777 77.276 210.307 77.42 210.787 77.708C211.267 77.9907 211.649 78.372 211.931 78.852C212.219 79.3267 212.363 79.8573 212.363 80.444ZM217.273 85.708C216.537 85.708 215.865 85.5187 215.257 85.14C214.654 84.7613 214.172 84.252 213.809 83.612C213.452 82.972 213.273 82.2653 213.273 81.492C213.273 80.9107 213.377 80.3667 213.585 79.86C213.793 79.348 214.078 78.9 214.441 78.516C214.809 78.1267 215.236 77.8227 215.721 77.604C216.206 77.3853 216.724 77.276 217.273 77.276C217.897 77.276 218.468 77.4093 218.985 77.676C219.508 77.9373 219.95 78.2973 220.313 78.756C220.676 79.2147 220.94 79.7373 221.105 80.324C221.27 80.9107 221.308 81.524 221.217 82.164H215.369C215.444 82.4627 215.566 82.732 215.737 82.972C215.908 83.2067 216.124 83.396 216.385 83.54C216.646 83.6787 216.942 83.7507 217.273 83.756C217.614 83.7613 217.924 83.6813 218.201 83.516C218.484 83.3453 218.718 83.116 218.905 82.828L220.897 83.292C220.572 84.0013 220.086 84.5827 219.441 85.036C218.796 85.484 218.073 85.708 217.273 85.708ZM215.305 80.7H219.241C219.182 80.38 219.057 80.092 218.865 79.836C218.678 79.5747 218.446 79.3667 218.169 79.212C217.892 79.0573 217.593 78.98 217.273 78.98C216.953 78.98 216.657 79.0573 216.385 79.212C216.113 79.3613 215.881 79.5667 215.689 79.828C215.502 80.084 215.374 80.3747 215.305 80.7Z" fill="#4F3422"/>
<rect x="121" y="799" width="134" height="5" rx="2.5" fill="#4F3422"/>
<rect x="308" y="18" width="3" height="10" rx="1.5" fill="#4F3422"/>
<rect x="303" y="20" width="3" height="8" rx="1.5" fill="#4F3422"/>
<rect x="298" y="22" width="3" height="6" rx="1.5" fill="#4F3422"/>
<rect x="293" y="24" width="3" height="4" rx="1.5" fill="#4F3422"/>
<path opacity="0.35" d="M341.667 17.832H352.333C355.186 17.832 357.5 20.1456 357.5 22.999C357.5 25.8523 355.186 28.165 352.333 28.165H341.667C338.814 28.165 336.5 25.8523 336.5 22.999C336.5 20.1456 338.814 17.832 341.667 17.832Z" stroke="#4F3422"/>
<path opacity="0.4" d="M359 21V25C359.805 24.6612 360.328 23.8731 360.328 23C360.328 22.1269 359.805 21.3388 359 21Z" fill="#4F3422"/>
<path d="M338 22.9987C338 20.9737 339.642 19.332 341.667 19.332H352.333C354.358 19.332 356 20.9737 356 22.9987C356 25.0237 354.358 26.6654 352.333 26.6654H341.667C339.642 26.6654 338 25.0237 338 22.9987Z" fill="#4F3422"/>
<path d="M34.9296 27.7851L37.1865 23.9421C36.6327 23.9752 36.1042 23.9008 35.6008 23.719C35.103 23.5372 34.6584 23.2672 34.2668 22.9091C33.8753 22.551 33.5649 22.1267 33.3356 21.6364C33.1119 21.146 33 20.6143 33 20.0413C33 19.4848 33.1063 18.9642 33.3188 18.4793C33.5313 17.989 33.825 17.5592 34.1997 17.1901C34.5801 16.8154 35.0163 16.5234 35.5085 16.3141C36.0063 16.1047 36.5405 16 37.111 16C37.8549 16 38.5344 16.1818 39.1497 16.5455C39.7705 16.9091 40.2655 17.3967 40.6346 18.0083C41.0094 18.6198 41.1968 19.2975 41.1968 20.0413C41.1968 20.4105 41.1492 20.7603 41.0541 21.0909C40.9646 21.416 40.822 21.7466 40.6263 22.0826L37.2955 27.7851H34.9296ZM37.0942 22.0661C37.4969 22.0661 37.8521 21.9697 38.1597 21.7769C38.4729 21.584 38.7162 21.3333 38.8896 21.0248C39.063 20.7163 39.1497 20.3857 39.1497 20.0331C39.1497 19.6474 39.0546 19.303 38.8644 19C38.6742 18.6915 38.4226 18.4518 38.1093 18.281C37.7961 18.1047 37.4633 18.0165 37.111 18.0165C36.7083 18.0165 36.3503 18.1129 36.0371 18.3058C35.7295 18.4931 35.4862 18.741 35.3072 19.0496C35.1282 19.3581 35.0387 19.686 35.0387 20.0331C35.0387 20.4022 35.1282 20.741 35.3072 21.0496C35.4917 21.3581 35.7378 21.6061 36.0455 21.7934C36.3587 21.9752 36.7083 22.0661 37.0942 22.0661Z" fill="#4F3422"/>
<path d="M43.2913 21.595C43.0005 21.595 42.7516 21.4959 42.5446 21.2975C42.3433 21.0937 42.2426 20.8457 42.2426 20.5537C42.2426 20.2727 42.3433 20.0303 42.5446 19.8264C42.7516 19.6226 43.0005 19.5207 43.2913 19.5207C43.5821 19.5207 43.831 19.6226 44.038 19.8264C44.2449 20.0303 44.3484 20.2727 44.3484 20.5537C44.3484 20.8457 44.2449 21.0937 44.038 21.2975C43.831 21.4959 43.5821 21.595 43.2913 21.595ZM43.2913 28C43.0005 28 42.7516 27.9008 42.5446 27.7025C42.3433 27.4986 42.2426 27.2507 42.2426 26.9587C42.2426 26.6777 42.3433 26.4353 42.5446 26.2314C42.7516 26.0275 43.0005 25.9256 43.2913 25.9256C43.5821 25.9256 43.831 26.0275 44.038 26.2314C44.2449 26.4353 44.3484 26.6777 44.3484 26.9587C44.3484 27.2507 44.2449 27.4986 44.038 27.7025C43.831 27.9008 43.5821 28 43.2913 28Z" fill="#4F3422"/>
<path d="M50.8938 27.7851V24.9835H45.8936V22.9587L50.4156 16.2149H52.9409V22.9669H53.9309V24.9835H52.9409V27.7851H50.8938ZM48.2678 22.9587L50.8938 22.9669L50.8854 18.9669L48.2678 22.9587Z" fill="#4F3422"/>
<path d="M56.9529 27.7851V18.2314H55.4763L56.03 16.2149H59V27.7851H56.9529Z" fill="#4F3422"/>
<path d="M321.587 26.5858C321.962 26.2107 322.47 26 323.001 26C323.531 26 324.04 26.2107 324.415 26.5858M318.758 23.7574C319.315 23.2002 319.977 22.7583 320.705 22.4567C321.433 22.1552 322.213 22 323.001 22C323.789 22 324.569 22.1552 325.297 22.4567C326.025 22.7583 326.686 23.2002 327.243 23.7574M315.93 20.9289C316.858 20.0003 317.961 19.2638 319.174 18.7612C320.387 18.2587 321.688 18 323.001 18C324.314 18 325.614 18.2587 326.828 18.7612C328.041 19.2638 329.143 20.0003 330.072 20.9289" stroke="#4F3422" stroke-width="2" stroke-linecap="round"/>
</g>
<defs>
<filter id="filter0_ddddd_4002_13888" x="-403" y="88" width="1180" height="1365" filterUnits="userSpaceOnUse" color-interpolation-filters="sRGB">
<feFlood flood-opacity="0" result="BackgroundImageFix"/>
<feColorMatrix in="SourceAlpha" type="matrix" values="0 0 0 0 0 0 0 0 0 0 0 0 0 0 0 0 0 0 127 0" result="hardAlpha"/>
<feOffset/>
<feColorMatrix type="matrix" values="0 0 0 0 0.294118 0 0 0 0 0.203922 0 0 0 0 0.145098 0 0 0 0.05 0"/>
<feBlend mode="normal" in2="BackgroundImageFix" result="effect1_dropShadow_4002_13888"/>
<feColorMatrix in="SourceAlpha" type="matrix" values="0 0 0 0 0 0 0 0 0 0 0 0 0 0 0 0 0 0 127 0" result="hardAlpha"/>
<feOffset dy="-17"/>
<feGaussianBlur stdDeviation="19"/>
<feColorMatrix type="matrix" values="0 0 0 0 0.294118 0 0 0 0 0.203922 0 0 0 0 0.145098 0 0 0 0.05 0"/>
<feBlend mode="normal" in2="effect1_dropShadow_4002_13888" result="effect2_dropShadow_4002_13888"/>
<feColorMatrix in="SourceAlpha" type="matrix" values="0 0 0 0 0 0 0 0 0 0 0 0 0 0 0 0 0 0 127 0" result="hardAlpha"/>
<feOffset dy="-69"/>
<feGaussianBlur stdDeviation="34.5"/>
<feColorMatrix type="matrix" values="0 0 0 0 0.294118 0 0 0 0 0.203922 0 0 0 0 0.145098 0 0 0 0.04 0"/>
<feBlend mode="normal" in2="effect2_dropShadow_4002_13888" result="effect3_dropShadow_4002_13888"/>
<feColorMatrix in="SourceAlpha" type="matrix" values="0 0 0 0 0 0 0 0 0 0 0 0 0 0 0 0 0 0 127 0" result="hardAlpha"/>
<feOffset dy="-154"/>
<feGaussianBlur stdDeviation="46.5"/>
<feColorMatrix type="matrix" values="0 0 0 0 0.294118 0 0 0 0 0.203922 0 0 0 0 0.145098 0 0 0 0.03 0"/>
<feBlend mode="normal" in2="effect3_dropShadow_4002_13888" result="effect4_dropShadow_4002_13888"/>
<feColorMatrix in="SourceAlpha" type="matrix" values="0 0 0 0 0 0 0 0 0 0 0 0 0 0 0 0 0 0 127 0" result="hardAlpha"/>
<feOffset dy="-274"/>
<feGaussianBlur stdDeviation="55"/>
<feColorMatrix type="matrix" values="0 0 0 0 0.294118 0 0 0 0 0.203922 0 0 0 0 0.145098 0 0 0 0.01 0"/>
<feBlend mode="normal" in2="effect4_dropShadow_4002_13888" result="effect5_dropShadow_4002_13888"/>
<feBlend mode="normal" in="SourceGraphic" in2="effect5_dropShadow_4002_13888" result="shape"/>
</filter>
<clipPath id="clip0_4002_13888">
<rect width="375" height="812" rx="40" fill="white"/>
</clipPath>
</defs>
</svg>
